<svg xmlns="http://www.w3.org/2000/svg" viewBox="0 0 32 32" fill="none">
  <rect width="32" height="32" rx="6" fill="#3B82F6"/>
  <path d="M8 12C8 10.8954 8.89543 10 10 10H22C23.1046 10 24 10.8954 24 12V20C24 21.1046 23.1046 22 22 22H10C8.89543 22 8 21.1046 8 20V12Z" fill="white"/>
  <path d="M12 14C12 13.4477 12.4477 13 13 13H19C19.5523 13 20 13.4477 20 14C20 14.5523 19.5523 15 19 15H13C12.4477 15 12 14.5523 12 14Z" fill="#3B82F6"/>
  <path d="M12 17C12 16.4477 12.4477 16 13 16H17C17.5523 16 18 16.4477 18 17C18 17.5523 17.5523 18 17 18H13C12.4477 18 12 17.5523 12 17Z" fill="#3B82F6"/>
  <path d="M10 6C10 5.44772 10.4477 5 11 5H21C21.5523 5 22 5.44772 22 6C22 6.55228 21.5523 7 21 7H11C10.4477 7 10 6.55228 10 6Z" fill="white"/>
</svg>
